<svg width="19" height="23" viewBox="0 0 19 23" fill="none" xmlns="http://www.w3.org/2000/svg">
<path fill-rule="evenodd" clip-rule="evenodd" d="M4.75 1.15C4.75 0.514872 5.28166 0 5.9375 0L13.0625 0C13.7183 0 14.25 0.514873 14.25 1.15V2.3H17.8125C18.4683 2.3 19 2.81487 19 3.45C19 4.08513 18.4683 4.6 17.8125 4.6V19.55C17.8125 21.4554 16.2175 23 14.25 23H4.75C2.78249 23 1.1875 21.4554 1.1875 19.55L1.1875 4.6C0.531662 4.6 0 4.08513 0 3.45C0 2.81487 0.531662 2.3 1.1875 2.3L4.75 2.3V1.15ZM8.3125 8.05C8.3125 7.41487 7.78084 6.9 7.125 6.9C6.46916 6.9 5.9375 7.41487 5.9375 8.05V17.25C5.9375 17.8851 6.46916 18.4 7.125 18.4C7.78084 18.4 8.3125 17.8851 8.3125 17.25L8.3125 8.05ZM13.0625 8.05C13.0625 7.41487 12.5308 6.9 11.875 6.9C11.2192 6.9 10.6875 7.41487 10.6875 8.05L10.6875 17.25C10.6875 17.8851 11.2192 18.4 11.875 18.4C12.5308 18.4 13.0625 17.8851 13.0625 17.25L13.0625 8.05Z" fill="#ED6363"/>
</svg>
