<svg width="63" height="63" viewBox="0 0 63 63" fill="none" xmlns="http://www.w3.org/2000/svg">
<path d="M46.697 2H16.303C12.5096 2 8.8716 3.50692 6.18926 6.18926C3.50692 8.8716 2 12.5096 2 16.303V46.697C2 50.4904 3.50692 54.1284 6.18926 56.8107C8.8716 59.4931 12.5096 61 16.303 61H40.7719C42.6507 61.0001 44.5111 60.63 46.2468 59.9109C47.9825 59.1919 49.5595 58.1379 50.8878 56.8092L56.8092 50.8878C58.1379 49.5595 59.1919 47.9825 59.9109 46.2468C60.63 44.5111 61.0001 42.6507 61 40.7719V16.303C61 12.5096 59.4931 8.8716 56.8107 6.18926C54.1284 3.50692 50.4904 2 46.697 2Z" stroke="black" stroke-width="4" stroke-linecap="round" stroke-linejoin="round"/>
<path d="M61 37.7576H48.4848C45.6398 37.7576 42.9113 38.8878 40.8995 40.8995C38.8878 42.9113 37.7576 45.6398 37.7576 48.4848V61M16.303 16.303H43.1212M16.303 30.6061H34.1818" stroke="black" stroke-width="4" stroke-linecap="round" stroke-linejoin="round"/>
</svg>
