<svg width="30" height="31" viewBox="0 0 30 31" fill="none" xmlns="http://www.w3.org/2000/svg">
<path d="M1.15655 19.4792L1.94853 22.4388C2.87378 25.8932 3.33794 27.6211 4.38727 28.7409C5.21548 29.6245 6.28693 30.2429 7.46634 30.5179C8.96145 30.8672 10.6894 30.4046 14.1453 29.4793C17.5981 28.5541 19.3261 28.0914 20.4459 27.0421C20.5388 26.9543 20.6287 26.8644 20.7155 26.7725C20.1938 26.7255 19.6752 26.6487 19.1622 26.5427C18.096 26.3313 16.8291 25.9912 15.331 25.5899L15.1671 25.5455L15.1288 25.5363C13.4989 25.0982 12.137 24.7336 11.0494 24.3414C9.90508 23.9278 8.86647 23.4177 7.98258 22.5905C6.76676 21.4514 5.91596 19.9774 5.53771 18.3548C5.26197 17.1768 5.34163 16.0218 5.55609 14.8254C5.76136 13.678 6.12901 12.3024 6.57019 10.6557L7.38975 7.6011L7.41732 7.49387C4.47612 8.28584 2.9274 8.7546 1.89492 9.72121C1.01025 10.55 0.39131 11.6227 0.116412 12.8033C-0.232855 14.2969 0.229771 16.0249 1.15655 19.4792Z" fill="white"/>
<path fill-rule="evenodd" clip-rule="evenodd" d="M28.8452 13.3503L28.0516 16.3098C27.1249 19.7642 26.6622 21.4922 25.6129 22.612C24.7849 23.4961 23.7134 24.115 22.5338 24.3905C22.3858 24.4252 22.2351 24.4517 22.0819 24.4701C20.6803 24.6432 18.9692 24.1852 15.8564 23.3519C12.402 22.4251 10.6741 21.9625 9.55428 20.9131C8.66987 20.0847 8.05095 19.0127 7.77578 17.8325C7.42651 16.3374 7.88913 14.611 8.81592 11.1566L9.6079 8.19704L9.98167 6.8107C10.6787 4.2586 11.1474 2.85387 12.0466 1.89339C12.8748 1.0098 13.9463 0.391446 15.1257 0.116412C16.6208 -0.232855 18.3488 0.229771 21.8047 1.15655C25.2575 2.08181 26.9855 2.54443 28.1053 3.59223C28.9899 4.42106 29.6089 5.49367 29.8838 6.67436C30.233 8.16947 29.7704 9.89589 28.8452 13.3503ZM13.865 11.9563C13.9041 11.8105 13.9715 11.6739 14.0634 11.5542C14.1553 11.4345 14.2699 11.3341 14.4007 11.2587C14.5314 11.1833 14.6757 11.1344 14.8253 11.1148C14.975 11.0951 15.127 11.1052 15.2728 11.1444L22.6717 13.1281C22.8213 13.1636 22.9623 13.2287 23.0862 13.3197C23.2102 13.4106 23.3146 13.5255 23.3934 13.6576C23.4721 13.7896 23.5236 13.9361 23.5447 14.0884C23.5658 14.2407 23.5561 14.3957 23.5162 14.5441C23.4763 14.6926 23.407 14.8316 23.3125 14.9528C23.2179 15.074 23.0999 15.175 22.9656 15.2498C22.8313 15.3246 22.6833 15.3717 22.5305 15.3883C22.3777 15.4048 22.223 15.3906 22.0758 15.3463L14.6769 13.3641C14.3828 13.2851 14.1322 13.0926 13.9799 12.8289C13.8277 12.5652 13.7863 12.2504 13.865 11.9563ZM12.6762 16.3972C12.7552 16.1031 12.9477 15.8525 13.2114 15.7002C13.475 15.548 13.7884 15.5066 14.0825 15.5853L18.5219 16.7755C18.6722 16.8102 18.814 16.8748 18.9388 16.9655C19.0636 17.0562 19.1688 17.171 19.2483 17.3032C19.3277 17.4355 19.3797 17.5823 19.4012 17.7351C19.4227 17.8879 19.4132 18.0434 19.3732 18.1924C19.3333 18.3414 19.2638 18.4808 19.1688 18.6024C19.0739 18.7239 18.9554 18.8251 18.8205 18.8999C18.6855 18.9747 18.5369 19.0215 18.3835 19.0376C18.2301 19.0537 18.075 19.0388 17.9275 18.9937L13.4881 17.805C13.3424 17.7659 13.2057 17.6984 13.086 17.6065C12.9663 17.5146 12.8659 17.4 12.7905 17.2693C12.7151 17.1385 12.6662 16.9942 12.6466 16.8446C12.627 16.6949 12.6371 16.5429 12.6762 16.3972Z" fill="white"/>
</svg>
